<svg xmlns="http://www.w3.org/2000/svg" viewBox="0 0 293.09 52.55"><defs><style>.cls-1{fill:#004d44;}.cls-2{fill:#80a41f;}.cls-3{fill:#d06b16;}</style></defs><title>logo</title><g id="Layer_2" data-name="Layer 2"><g id="Laag_1" data-name="Laag 1"><path class="cls-1" d="M9.2,13H23.29v6.86H9.2V31.38H0V0H24.48V6.86H9.2Z"/><path class="cls-1" d="M38.61,24.1H53v7.28H29.41V0h9.2Z"/><path class="cls-1" d="M66.73,12.59H81.46v5.82H66.73v6.11h16v6.86H57.53V0H82.42V6.86H66.73Z"/><path class="cls-1" d="M187.68,12.45c10.33.67,12.89,1.83,12.89,9,0,5.14.23,10.21-15.13,10.21-8.89,0-14.8-.17-14.8-10.38h8.94c0,3.24,1.3,3.57,5.86,3.57,4.38,0,5.82-.25,5.82-2.86s-.51-2.66-4.89-2.91l-2.05-.12c-8.61-.54-13.63-.5-13.63-9.42S176.32,0,185.44,0c7.63,0,14.15.12,14.15,8.72V10h-8.94c0-3.19-1.49-3.19-5.21-3.19-5,0-5.44.91-5.44,2.65,0,2.49,1.35,2.58,3.81,2.74Z"/><path class="cls-1" d="M215.37,31.38h-9.31V.25h9.31Z"/><path class="cls-1" d="M243.24,9.92c-.18-3.15-3.21-3.11-6-3.11-6.7,0-6.89,1.82-7,6.85v5.06c0,5.52,2.14,6.1,7,6.1s6-.95,6-5.27h-6.42V13.78h15.87v5.44c0,10.5-3,12.41-15.45,12.41-11,0-16.57-1.66-16.57-11.75v-8C220.67,1.54,227,0,237.24,0c9,0,15.45,0,15.45,9.92Z"/><path class="cls-1" d="M267.54,31.38h-9.31V.25H274l10,23.91h.38L283.78.25h9.31V31.38H277.22L267.35,7.47H267Z"/><path class="cls-2" d="M4.23,51.44A2.61,2.61,0,0,0,7,48.7a2.65,2.65,0,0,0-2.77-2.8,2.64,2.64,0,0,0-2.72,2.8,2.59,2.59,0,0,0,2.72,2.74m0-6.65a3.84,3.84,0,0,1,4,3.92,3.78,3.78,0,0,1-4,3.84A3.77,3.77,0,0,1,.28,48.71a3.83,3.83,0,0,1,4-3.92"/><path class="cls-2" d="M12.29,46v3.12h2a1.56,1.56,0,1,0,0-3.12Zm0,4.17v2.31H11.13V44.91h3.41a2.45,2.45,0,0,1,2.63,2.62,2.52,2.52,0,0,1-2.63,2.6Z"/><polygon class="cls-2" points="28.95 44.91 28.95 48.07 24.87 48.07 24.87 44.91 23.71 44.91 23.71 52.44 24.87 52.44 24.87 49.12 28.95 49.12 28.95 52.44 30.12 52.44 30.12 44.91 28.95 44.91"/><polygon class="cls-2" points="33.5 44.91 33.5 52.44 39.09 52.44 39.09 51.38 34.67 51.38 34.67 49.1 38.39 49.1 38.39 48.04 34.67 48.04 34.67 45.97 38.97 45.97 38.97 44.91 33.5 44.91"/><polygon class="cls-2" points="41.18 44.91 41.18 46 43.67 46 43.67 52.44 44.83 52.44 44.83 46 47.31 46 47.31 44.91 41.18 44.91"/><path class="cls-2" d="M58.28,45.2l-.1,1.11a4.59,4.59,0,0,0-2-.46c-1,0-1.63.34-1.63,1.07s.61.91,1.21,1.09l1.1.32c1.11.33,1.83.84,1.83,2a2.43,2.43,0,0,1-2.71,2.27A6.69,6.69,0,0,1,53.2,52L53.3,51a6.9,6.9,0,0,0,2.49.52c.91,0,1.6-.39,1.6-1.11s-.33-.85-1.06-1.06L55.12,49c-.89-.26-1.87-.74-1.87-1.91,0-1.37,1-2.28,2.74-2.28a6.17,6.17,0,0,1,2.29.41"/><path class="cls-2" d="M67.75,52.05a5.48,5.48,0,0,1-2.43.49C62.76,52.54,61,51,61,48.67s1.74-3.88,4.3-3.88a6,6,0,0,1,2.34.48l-.12,1.1a5.41,5.41,0,0,0-2.22-.47,2.77,2.77,0,0,0-3.05,2.77c0,1.64,1.3,2.77,3.19,2.77A4.74,4.74,0,0,0,67.58,51Z"/><polygon class="cls-2" points="75.75 44.91 75.75 48.07 71.67 48.07 71.67 44.91 70.51 44.91 70.51 52.44 71.67 52.44 71.67 49.12 75.75 49.12 75.75 52.44 76.92 52.44 76.92 44.91 75.75 44.91"/><polygon class="cls-2" points="80.3 44.91 80.3 52.44 85.89 52.44 85.89 51.38 81.47 51.38 81.47 49.1 85.19 49.1 85.19 48.04 81.47 48.04 81.47 45.97 85.77 45.97 85.77 44.91 80.3 44.91"/><path class="cls-2" d="M90,46v3.12h2A1.56,1.56,0,1,0,92,46ZM92,50.13H90v2.31H88.79V44.91H92.2a2.44,2.44,0,0,1,2.63,2.62,2.47,2.47,0,0,1-1.58,2.41l2.06,2.49H93.88Z"/><path class="cls-2" d="M99.15,46v3.12h2a1.56,1.56,0,1,0,0-3.12Zm0,4.17v2.31H98V44.91h3.41A2.45,2.45,0,0,1,104,47.53a2.52,2.52,0,0,1-2.63,2.6Z"/><path class="cls-2" d="M111.43,45.2l-.1,1.11a4.59,4.59,0,0,0-2-.46c-1,0-1.64.34-1.64,1.07s.62.91,1.22,1.09l1.1.32c1.11.33,1.83.84,1.83,2a2.43,2.43,0,0,1-2.71,2.27,6.69,6.69,0,0,1-2.73-.52l.1-1.07a6.9,6.9,0,0,0,2.49.52c.91,0,1.59-.39,1.59-1.11s-.32-.85-1-1.06L108.27,49c-.89-.26-1.87-.74-1.87-1.91,0-1.37,1-2.28,2.74-2.28a6.17,6.17,0,0,1,2.29.41"/><polygon class="cls-2" points="113.75 44.91 113.75 46 116.24 46 116.24 52.44 117.39 52.44 117.39 46 119.87 46 119.87 44.91 113.75 44.91"/><polygon class="cls-2" points="131.08 44.91 128.68 51.2 126.28 44.91 125.06 44.91 127.98 52.44 129.37 52.44 132.29 44.91 131.08 44.91"/><path class="cls-2" d="M137.11,46.21l1.56,3.69h-3.13Zm-.64-1.3-3.11,7.53h1.25l.61-1.57H139l.6,1.57h1.25l-3.12-7.53Z"/><polygon class="cls-2" points="149.31 44.91 149.31 50.65 144.5 44.91 143.34 44.91 143.34 52.44 144.5 52.44 144.5 46.75 149.3 52.44 150.48 52.44 150.48 44.91 149.31 44.91"/><path class="cls-2" d="M163.71,48.68A2.41,2.41,0,0,0,161,46h-1.85v5.43H161a2.38,2.38,0,0,0,2.72-2.7m-2.54-3.77a3.46,3.46,0,0,1,3.74,3.77,3.44,3.44,0,0,1-3.74,3.76H158V44.91Z"/><polygon class="cls-2" points="167.85 44.91 167.85 52.44 173.43 52.44 173.43 51.38 169.01 51.38 169.01 49.1 172.74 49.1 172.74 48.04 169.01 48.04 169.01 45.97 173.32 45.97 173.32 44.91 167.85 44.91"/><path class="cls-2" d="M185.1,45.2l-.1,1.11a4.59,4.59,0,0,0-2.05-.46c-1,0-1.63.34-1.63,1.07s.61.91,1.21,1.09l1.1.32c1.11.33,1.83.84,1.83,2a2.42,2.42,0,0,1-2.71,2.27A6.69,6.69,0,0,1,180,52l.1-1.07a6.9,6.9,0,0,0,2.49.52c.91,0,1.6-.39,1.6-1.11s-.33-.85-1.06-1.06L181.94,49c-.89-.26-1.87-.74-1.87-1.91,0-1.37,1-2.28,2.74-2.28a6.17,6.17,0,0,1,2.29.41"/><polygon class="cls-2" points="194.27 44.91 194.27 50.65 189.46 44.91 188.3 44.91 188.3 52.44 189.46 52.44 189.46 46.75 194.26 52.44 195.44 52.44 195.44 44.91 194.27 44.91"/><polygon class="cls-2" points="198.82 44.91 198.82 52.44 204.4 52.44 204.4 51.38 199.98 51.38 199.98 49.1 203.71 49.1 203.71 48.04 199.98 48.04 199.98 45.97 204.29 45.97 204.29 44.91 198.82 44.91"/><path class="cls-2" d="M213,48.68A2.41,2.41,0,0,0,210.33,46h-1.85v5.43h1.85a2.38,2.38,0,0,0,2.71-2.7m-2.54-3.77a3.45,3.45,0,0,1,3.74,3.77,3.44,3.44,0,0,1-3.74,3.76h-3.19V44.91Z"/><polygon class="cls-2" points="217.18 44.91 217.18 52.44 222.77 52.44 222.77 51.38 218.35 51.38 218.35 49.1 222.07 49.1 222.07 48.04 218.35 48.04 218.35 45.97 222.65 45.97 222.65 44.91 217.18 44.91"/><polyline class="cls-1" points="112.21 15.41 112.54 14.99 121.56 3.46 131.83 3.46 122.47 15.41 132.36 27.91 122.1 27.91 112.21 15.41 106.72 22.49 113.76 31.38 117.69 31.38 125.96 31.38 127.44 31.38 139.65 31.38 127 15.39 127.01 15.37 139.06 0 126.53 0 125.37 0 112.84 0 106.61 8.24"/><polygon class="cls-1" points="157.05 0.25 150.63 12.24 150.3 12.24 144.26 0.62 138.3 8.23 145.79 20.46 145.79 31.38 155.1 31.38 155.1 20.46 167.85 0.25 157.05 0.25"/><polygon class="cls-3" points="106.72 22.49 112.21 15.41 100.17 0 87.94 0 100.14 15.32 100.1 15.37 87.35 31.38 99.82 31.38 106.72 22.49 106.72 22.49"/></g></g></svg>